<svg aria-hidden="true" style="width:0;height:0;position:absolute;overflow:hidden" xmlns="http://www.w3.org/2000/svg"><defs><symbol id="down-arrow" viewBox="0 0 45 32"><path fill="#fff" style="fill:var(--color1,#fff)" d="M24.798 28.888a3.2 3.2 0 0 1-4.992 0L1.449 6.002C-.231 3.907 1.26.8 3.945.8h36.714c2.685 0 4.176 3.108 2.496 5.202L24.798 28.888z"/></symbol><symbol id="up-arrow" viewBox="0 0 45 32"><path fill="#fff" style="fill:var(--color1,#fff)" d="M24.9 3.127a3.2 3.2 0 0 0-4.999 0L1.614 26.002C-.061 28.097 1.431 31.2 4.113 31.2h36.573c2.683 0 4.174-3.103 2.5-5.198L24.899 3.127z"/></symbol><symbol id="close" viewBox="0 0 32 32"><path fill="none" stroke="#86e543" style="stroke:var(--color2,#86e543)" stroke-linejoin="round" stroke-linecap="round" stroke-width="1.412" d="M21.294 10.706 10.706 21.294m0-10.588 10.588 10.588M16 30.706c8.122 0 14.706-6.584 14.706-14.706S24.122 1.294 16 1.294 1.294 7.878 1.294 16 7.878 30.706 16 30.706z"/></symbol><symbol id="facebook" viewBox="0 0 33 32"><path fill="#fff" style="fill:var(--color1,#fff)" d="M17.149 0c8.837 0 16 7.163 16 16s-7.163 16-16 16-16-7.163-16-16 7.163-16 16-16z"/><path fill="#001414" style="fill:var(--color3,#001414)" d="M21.149 13.181h-2.952V11.52c0-.624.482-.769.821-.769h2.083V8.009l-2.869-.01c-3.184 0-3.909 2.045-3.909 3.353v1.828h-1.842v2.825h1.842v7.994h3.873v-7.994h2.614l.338-2.825z"/></symbol><symbol id="youtube" viewBox="0 0 33 32"><path fill="#fff" style="fill:var(--color1,#fff)" d="M17.149 0c8.837 0 16 7.163 16 16s-7.163 16-16 16-16-7.163-16-16 7.163-16 16-16z"/><path fill="#001414" style="fill:var(--color3,#001414)" d="M23.401 10.986c.688.176 1.231.694 1.415 1.351.334 1.192.334 3.679.334 3.679s0 2.487-.334 3.679c-.184.658-.726 1.154-1.415 1.33-1.248.319-6.251.319-6.251.319s-5.003 0-6.251-.319c-.688-.176-1.231-.672-1.415-1.33-.334-1.192-.334-3.679-.334-3.679s0-2.487.334-3.679a1.958 1.958 0 0 1 1.415-1.351c1.248-.319 6.251-.319 6.251-.319s5.003 0 6.251.319zm-7.888 2.772v4.516l4.182-2.258-4.182-2.258z"/></symbol><symbol id="instagram" viewBox="0 0 33 32"><path fill="#fff" style="fill:var(--color1,#fff)" d="M17.149 0c8.837 0 16 7.163 16 16s-7.163 16-16 16-16-7.163-16-16 7.163-16 16-16z"/><path fill="#001414" style="fill:var(--color3,#001414)" d="M25.149 9a1 1 0 1 1-2 0 1 1 0 0 1 2 0zm-8 14a7 7 0 1 1 0-14 7 7 0 0 1 0 14zm.001-2.333a4.667 4.667 0 1 0 0-9.334 4.667 4.667 0 0 0 0 9.334z"/></symbol><symbol id="line-2" viewBox="0 0 171 32"><path fill="#001414" style="fill:var(--color3,#001414)" d="M17.149 23a7 7 0 1 1 0-14 7 7 0 0 1 0 14zm.001-2.333a4.667 4.667 0 1 0 0-9.334 4.667 4.667 0 0 0 0 9.334z"/></symbol><symbol id="line-1" viewBox="0 0 174 32"><path fill="#001414" style="fill:var(--color3,#001414)" d="M17.149 23a7 7 0 1 1 0-14 7 7 0 0 1 0 14zm.001-2.333a4.667 4.667 0 1 0 0-9.334 4.667 4.667 0 0 0 0 9.334z"/></symbol><symbol id="close-menu" viewBox="0 0 32 32"><path fill="none" stroke="#86e543" style="stroke:var(--color2,#86e543)" stroke-linecap="round" stroke-width="3.556" d="M29.63 30.222 2.371 1.778m27.259 0L2.371 30.222"/></symbol><symbol id="open-menu" viewBox="0 0 48 32"><path fill="#86e543" style="fill:var(--color2,#86e543)" d="M45.467 13.333H2.534c-1.399 0-2.533.681-2.533 1.52v.16c0 .839 1.134 1.52 2.533 1.52h42.933c1.399 0 2.533-.681 2.533-1.52v-.16c0-.839-1.134-1.52-2.533-1.52zm0 13.334H2.534c-1.399 0-2.533.681-2.533 1.52v.16c0 .839 1.134 1.52 2.533 1.52h42.933c1.399 0 2.533-.681 2.533-1.52v-.16c0-.839-1.134-1.52-2.533-1.52zm0-26.667H2.534C1.135 0 .001.681.001 1.52v.16c0 .839 1.134 1.52 2.533 1.52h42.933C46.866 3.2 48 2.519 48 1.68v-.16C48 .681 46.866 0 45.467 0z"/></symbol><symbol id="icon-list" viewBox="0 0 45 32"><path d="M24.9 28.873a3.2 3.2 0 0 1-4.999 0L1.614 5.998C-.061 3.903 1.431.8 4.113.8h36.573c2.683 0 4.174 3.103 2.5 5.198L24.899 28.873z"/></symbol></defs></svg>